<svg width="24" height="24" viewBox="0 0 24 24" fill="none" xmlns="http://www.w3.org/2000/svg">
<path d="M17.77 10.26L16.57 9.76L18 9C19.84 8.04 20.53 5.77 19.56 3.94C18.59 2.11 16.32 1.41 14.49 2.38L6 6.88C4.71 7.56 3.93 8.92 4 10.37C4.07 11.79 4.93 13.04 6.22 13.62C6.25 13.63 7.42 14.12 7.42 14.12L6 14.87C4.17 15.84 3.47 18.11 4.44 19.94C5.41 21.77 7.68 22.47 9.51 21.5L18.01 17C19.3 16.32 20.07 14.96 20 13.51C19.93 12.09 19.06 10.83 17.77 10.26Z" fill="#FF0000"/>
<path d="M17.77 10.26L16.57 9.76L18 9C19.84 8.04 20.53 5.77 19.56 3.94C18.59 2.11 16.32 1.41 14.49 2.38L6 6.88C4.71 7.56 3.93 8.92 4 10.37C4.07 11.79 4.93 13.04 6.22 13.62C6.25 13.63 7.42 14.12 7.42 14.12L6 14.87C4.17 15.84 3.47 18.11 4.44 19.94C5.41 21.77 7.68 22.47 9.51 21.5L18.01 17C19.3 16.32 20.07 14.96 20 13.51C19.93 12.09 19.06 10.83 17.77 10.26Z" stroke="black"/>
<path d="M17.77 10.26L16.57 9.76L18 9C19.84 8.04 20.53 5.77 19.56 3.94C18.59 2.11 16.32 1.41 14.49 2.38L6 6.88C4.71 7.56 3.93 8.92 4 10.37C4.07 11.79 4.93 13.04 6.22 13.62C6.25 13.63 7.42 14.12 7.42 14.12L6 14.87C4.17 15.84 3.47 18.11 4.44 19.94C5.41 21.77 7.68 22.47 9.51 21.5L18.01 17C19.3 16.32 20.07 14.96 20 13.51C19.93 12.09 19.06 10.83 17.77 10.26ZM17.54 16.12L9.04 20.62C7.7 21.33 6.03 20.82 5.32 19.48C4.61 18.14 5.12 16.47 6.46 15.76L8.5 14.68V13.47L7.81 13.19L6.7 12.73C5.71 12.32 5.05 11.38 5 10.32C4.95 9.26 5.52 8.26 6.46 7.76L14.96 3.26C16.3 2.55 17.97 3.06 18.68 4.4C19.39 5.74 18.88 7.41 17.54 8.12L15.5 9.2V10.41L17.3 11.15C18.29 11.56 18.95 12.5 19 13.56C19.05 14.62 18.48 15.62 17.54 16.12Z" fill="#252525"/>
<path d="M12.4325 11.9501L8.9724 13.7816L8.9724 10.0984L12.4325 11.9501Z" fill="#252525"/>
<path d="M12.4325 10.3306H13.2975V13.5494H14.1626V10.3306H15.0276V13.5494H14.1626H13.2975H12.4325V10.3306Z" fill="#252525"/>
</svg>
